<svg viewBox="0 0 194 33" xmlns="http://www.w3.org/2000/svg"><path d="M37.12 22.3l2.1-2.53c1.46 1.2 3 1.98 4.84 1.98 1.45 0 2.33-.58 2.33-1.54v-.03c0-.9-.56-1.38-3.27-2.08-3.26-.85-5.36-1.76-5.36-5v-.06c0-2.96 2.36-4.93 5.66-4.93a9.3 9.3 0 0 1 6 2.1l-1.84 2.7c-1.44-1-2.85-1.6-4.2-1.6-1.38 0-2.1.62-2.1 1.42v.04c0 1.08.7 1.43 3.5 2.15 3.28.87 5.13 2.07 5.13 4.9v.06c0 3.25-2.45 5.07-5.94 5.07-2.46 0-4.94-.86-6.88-2.62m18.06-10.64h-4.93v-3.3h13.4v3.3h-4.9V24.7h-3.57V11.65m9.68 6.03V8.34h3.56v9.24c0 2.66 1.32 4.03 3.5 4.03s3.48-1.33 3.48-3.92V8.36h3.56v9.22c0 4.95-2.75 7.38-7.1 7.38s-7-2.45-7-7.26m16.17-9.35h6.3c5.1 0 8.6 3.53 8.6 8.13v.04c0 4.6-3.5 8.18-8.6 8.18h-6.3V8.34zm6.3 13.1c2.92 0 4.9-2 4.9-4.88v-.05c0-2.9-1.98-4.93-4.9-4.93H84.6v9.85h2.74zm10.5-13.1h12.2v3.2h-8.66v3.3H109v3.2h-7.63v3.45h8.78v3.2H97.83V8.35m14.22 0h3.28l7.58 10.06V8.36h3.53V24.7h-3.03l-7.84-10.4v10.4h-3.5V8.34m20.75 3.3h-4.92v-3.3h13.4v3.3h-4.9V24.7h-3.57V11.65m24.54 8.3c-1.18 1.05-2.28 1.7-4 1.7-2.78 0-4.7-2.34-4.7-5.14v-.05c0-2.8 1.97-5.1 4.7-5.1 1.56 0 2.8.67 4 1.75.4-1.15.98-2.2 1.73-3.14a8.33 8.33 0 0 0-5.7-1.9 8.27 8.27 0 0 0-8.45 8.44v.05a8.2 8.2 0 0 0 8.3 8.4c2.56 0 4.26-.75 5.7-2.02a10.12 10.12 0 0 1-1.58-2.98" fill="#fff"/><path d="M158.78 16.57v-.05a8.4 8.4 0 0 1 8.62-8.45c5 0 8.58 3.76 8.58 8.4v.05a8.4 8.4 0 0 1-8.63 8.46c-5 0-8.57-3.76-8.57-8.4zm13.47 0v-.05c0-2.8-2.03-5.14-4.9-5.14-2.86 0-4.85 2.3-4.85 5.1v.04c0 2.8 2.03 5.14 4.9 5.14 2.86 0 4.85-2.3 4.85-5.1zm5.33-8.22h3.83l4.27 6.9 4.25-6.9h3.84V24.7h-3.54V14.02l-4.55 7h-.1l-4.5-6.93v10.6h-3.5V8.34m-33.7 14.63a2 2 0 0 1-2 2 2 2 0 0 1-1.97-2 2 2 0 0 1 1.98-2 2 2 0 0 1 1.98 2" fill="#fff"/><path d="M31.4 9a16.8 16.8 0 0 0-6.96-6.9 15.68 15.68 0 0 0-7.9-2.05C9.5.05 3.8 4.25 3.8 9.45a7.35 7.35 0 0 0 1.27 4.05 12.16 12.16 0 0 0 3.74 3.02c2.2 1.23 4.56 2.12 5.95 2.7 4.1 1.73 7.92 3 8.03 6.97.06 2.1-1.94 3.58-3.46 4.2-1.7.62-3.1.72-5.1.57A19.07 19.07 0 0 1 9.6 29.9a17.8 17.8 0 0 1-5.5-3.28 16.9 16.9 0 0 1-2.5-2.76c-.13-.2-.42 0-.3.2a16.8 16.8 0 0 0 6.95 6.9 15.7 15.7 0 0 0 7.9 2.03c7.03 0 12.72-4.2 12.73-9.4 0-1.37-.4-2.66-1.1-3.83a5.64 5.64 0 0 0-.16-.23 12.12 12.12 0 0 0-3.74-3.02c-2.18-1.23-4.56-2.12-5.95-2.7-4.07-1.73-7.9-3-8-6.96-.07-2.1 1.93-3.6 3.44-4.2 1.7-.63 3.12-.73 5.1-.58a17.8 17.8 0 0 1 10.13 4.35 16.8 16.8 0 0 1 2.5 2.76c.13.17.43 0 .32-.2" fill="#fcce01"/><path d="M25.96 7.22c-2.55-1.48-5.15-2.4-7.9-2.24-.4.03-.77.1-1.14.24-1.1.36-1.86 1.08-1.9 2.05 0 .96.8 1.82 2.03 2.26l.73.3c1.78.6 3.54 1.3 5.24 2.13 4.42 2.23 8.96 6.02 7.52 11.86-.04.17.2.26.3.1 3.77-7.8.8-13.1-4.9-16.7M6.72 25.82c2.55 1.48 5.16 2.4 7.9 2.24.4-.03.78-.1 1.15-.24 1.1-.36 1.86-1.07 1.88-2.05.02-.96-.8-1.8-2-2.26a9.82 9.82 0 0 0-.75-.28 45.8 45.8 0 0 1-5.24-2.14C5.22 18.85.68 15.06 2.12 9.22c.04-.17-.2-.26-.28-.1-3.8 7.8-.82 13.1 4.87 16.7" fill="#fcce01"/></svg>