<svg viewBox="0 0 16 16" xmlns="http://www.w3.org/2000/svg"><g fill="none" fill-rule="evenodd"><circle stroke="#E7E7E7" fill="#FFF" cx="8" cy="8" r="7.5"/><path d="M7.816 10v-.441c0-.186.013-.352.04-.499a1.822 1.822 0 0 1 .348-.8c.092-.125.21-.256.352-.395l.505-.5c.142-.131.263-.278.364-.44a1.1 1.1 0 0 0 .151-.592 1.1 1.1 0 0 0-.274-.76c-.184-.205-.443-.308-.78-.308a1.07 1.07 0 0 0-.824.366c-.1.112-.177.241-.23.388a1.569 1.569 0 0 0-.09.453L6 6.344c.045-.371.14-.702.286-.992a2.375 2.375 0 0 1 1.362-1.195c.299-.105.62-.157.964-.157.321 0 .626.048.914.145.288.097.542.24.762.43.22.189.394.423.521.702.127.278.191.6.191.963 0 .247-.026.464-.078.65a1.947 1.947 0 0 1-.225.51 2.747 2.747 0 0 1-.353.447 9.282 9.282 0 0 1-.465.447c-.15.132-.271.248-.364.348-.094.1-.169.201-.225.302-.056.1-.095.209-.117.325-.023.116-.034.259-.034.43V10H7.816zM7.6 11.513c0-.277.098-.515.294-.714A.955.955 0 0 1 8.6 10.5c.267 0 .5.095.7.286.2.19.3.424.3.701a.983.983 0 0 1-.294.714.955.955 0 0 1-.706.299.955.955 0 0 1-.381-.078 1.082 1.082 0 0 1-.319-.208.965.965 0 0 1-.3-.701z" fill="#38B2A6"/></g></svg>